<?xml version="1.0" encoding="utf-8"?>
<!-- Generator: Adobe Illustrator 17.0.0, SVG Export Plug-In . SVG Version: 6.00 Build 0)  -->
<!DOCTYPE svg PUBLIC "-//W3C//DTD SVG 1.1//EN" "http://www.w3.org/Graphics/SVG/1.1/DTD/svg11.dtd">
<svg version="1.1" xmlns="http://www.w3.org/2000/svg" xmlns:xlink="http://www.w3.org/1999/xlink" x="0px" y="0px"
	 width="283.46px" height="283.46px" viewBox="0 0 283.46 283.46" enable-background="new 0 0 283.46 283.46" xml:space="preserve">
<g id="Слой_5">
	<path fill="#A4C8D0" d="M252.082,128.718c0-17.772-18.264-32.18-40.795-32.18c-1.387,0-2.758,0.057-4.11,0.164
		c0.732-2.209,1.125-4.492,1.125-6.831c0-19.022-25.392-34.442-56.715-34.442c-30.824,0-55.849,14.942-56.64,33.546
		c-5.433-0.785-11.107-1.245-16.99-1.245c-36.818,0-66.664,16.379-66.664,36.584c0,14.789,16.023,27.498,39.034,33.265
		c-4.539,3.408-7.194,7.379-7.194,11.637c0,12.569,22.719,22.758,50.744,22.758c6.795,0,13.266-0.609,19.188-1.696
		c11.959,8.266,28.786,13.442,47.476,13.442c36.268,0,65.669-19.392,65.669-43.312c0-0.582-0.097-1.147-0.132-1.724
		C241.289,154.006,252.082,142.369,252.082,128.718z"/>
</g>
<g id="Слой_4">
	<line fill="none" stroke="#FFFFFF" stroke-width="0.5" stroke-miterlimit="10" x1="84.14" y1="86.018" x2="84.14" y2="193.707"/>
	<line fill="none" stroke="#FFFFFF" stroke-width="0.5" stroke-miterlimit="10" x1="94.206" y1="86.018" x2="94.206" y2="194.981"/>
	<line fill="none" stroke="#FFFFFF" stroke-width="0.5" stroke-miterlimit="10" x1="104.272" y1="67.5" x2="104.272" y2="193.304"/>
	
		<line fill="none" stroke="#FFFFFF" stroke-width="0.5" stroke-miterlimit="10" x1="114.338" y1="63.561" x2="114.338" y2="193.569"/>
	
		<line fill="none" stroke="#FFFFFF" stroke-width="0.5" stroke-miterlimit="10" x1="124.404" y1="56.446" x2="124.404" y2="196.698"/>
	<line fill="none" stroke="#FFFFFF" stroke-width="0.5" stroke-miterlimit="10" x1="134.47" y1="56.446" x2="134.47" y2="202.678"/>
	
		<line fill="none" stroke="#FFFFFF" stroke-width="0.5" stroke-miterlimit="10" x1="144.536" y1="52.532" x2="144.536" y2="201.664"/>
	
		<line fill="none" stroke="#FFFFFF" stroke-width="0.5" stroke-miterlimit="10" x1="154.602" y1="52.532" x2="154.602" y2="201.664"/>
	
		<line fill="none" stroke="#FFFFFF" stroke-width="0.5" stroke-miterlimit="10" x1="164.668" y1="56.718" x2="164.668" y2="201.664"/>
	
		<line fill="none" stroke="#FFFFFF" stroke-width="0.5" stroke-miterlimit="10" x1="174.734" y1="56.446" x2="174.734" y2="201.664"/>
	<line fill="none" stroke="#FFFFFF" stroke-width="0.5" stroke-miterlimit="10" x1="184.8" y1="61.532" x2="184.8" y2="201.664"/>
	<line fill="none" stroke="#FFFFFF" stroke-width="0.5" stroke-miterlimit="10" x1="194.866" y1="67.5" x2="194.866" y2="196.808"/>
	<line fill="none" stroke="#FFFFFF" stroke-width="0.5" stroke-miterlimit="10" x1="53.941" y1="90.5" x2="53.941" y2="183.238"/>
	<line fill="none" stroke="#FFFFFF" stroke-width="0.5" stroke-miterlimit="10" x1="64.007" y1="87.724" x2="64.007" y2="189.381"/>
	<line fill="none" stroke="#FFFFFF" stroke-width="0.5" stroke-miterlimit="10" x1="74.074" y1="87.724" x2="74.074" y2="191.33"/>
	
		<line fill="none" stroke="#FFFFFF" stroke-width="0.5" stroke-miterlimit="10" x1="24.037" y1="100.462" x2="24.037" y2="147.268"/>
	<line fill="none" stroke="#FFFFFF" stroke-width="0.5" stroke-miterlimit="10" x1="34.103" y1="96.773" x2="34.103" y2="153.039"/>
	<line fill="none" stroke="#FFFFFF" stroke-width="0.5" stroke-miterlimit="10" x1="44.169" y1="90.5" x2="44.169" y2="176.672"/>
	
		<line fill="none" stroke="#FFFFFF" stroke-width="0.5" stroke-miterlimit="10" x1="244.598" y1="108.5" x2="244.598" y2="147.268"/>
	
		<line fill="none" stroke="#FFFFFF" stroke-width="0.5" stroke-miterlimit="10" x1="204.628" y1="77.655" x2="204.628" y2="193.304"/>
	
		<line fill="none" stroke="#FFFFFF" stroke-width="0.5" stroke-miterlimit="10" x1="214.694" y1="96.773" x2="214.694" y2="184.911"/>
	<line fill="none" stroke="#FFFFFF" stroke-width="0.5" stroke-miterlimit="10" x1="224.76" y1="96.773" x2="224.76" y2="176.84"/>
	
		<line fill="none" stroke="#FFFFFF" stroke-width="0.5" stroke-miterlimit="10" x1="234.826" y1="100.462" x2="234.826" y2="154.963"/>
</g>
<g id="Слой_6">
	
		<line fill="none" stroke="#FFFFFF" stroke-width="0.5" stroke-miterlimit="10" x1="94.206" y1="193.304" x2="208.303" y2="193.304"/>
	<line fill="none" stroke="#FFFFFF" stroke-width="0.5" stroke-miterlimit="10" x1="53.941" y1="183.238" x2="220.5" y2="183.238"/>
	<line fill="none" stroke="#FFFFFF" stroke-width="0.5" stroke-miterlimit="10" x1="42.5" y1="173.171" x2="227" y2="173.171"/>
	<line fill="none" stroke="#FFFFFF" stroke-width="0.5" stroke-miterlimit="10" x1="44.169" y1="163.105" x2="229" y2="163.105"/>
	<line fill="none" stroke="#FFFFFF" stroke-width="0.5" stroke-miterlimit="10" x1="34.103" y1="153.039" x2="240.5" y2="153.039"/>
	
		<line fill="none" stroke="#FFFFFF" stroke-width="0.5" stroke-miterlimit="10" x1="20.644" y1="142.973" x2="246.94" y2="142.973"/>
	
		<line fill="none" stroke="#FFFFFF" stroke-width="0.5" stroke-miterlimit="10" x1="11.216" y1="132.907" x2="253.97" y2="132.907"/>
	
		<line fill="none" stroke="#FFFFFF" stroke-width="0.5" stroke-miterlimit="10" x1="11.216" y1="122.841" x2="253.97" y2="122.841"/>
	<line fill="none" stroke="#FFFFFF" stroke-width="0.5" stroke-miterlimit="10" x1="99.506" y1="73.109" x2="201.141" y2="73.109"/>
	
		<line fill="none" stroke="#FFFFFF" stroke-width="0.5" stroke-miterlimit="10" x1="110.845" y1="63.043" x2="194.866" y2="63.043"/>
	<line fill="none" stroke="#FFFFFF" stroke-width="0.5" stroke-miterlimit="10" x1="18.03" y1="113.079" x2="246.94" y2="113.079"/>
	<line fill="none" stroke="#FFFFFF" stroke-width="0.5" stroke-miterlimit="10" x1="23.755" y1="103.013" x2="237.5" y2="103.013"/>
	<line fill="none" stroke="#FFFFFF" stroke-width="0.5" stroke-miterlimit="10" x1="39.5" y1="92.947" x2="208.303" y2="92.947"/>
	<line fill="none" stroke="#FFFFFF" stroke-width="0.5" stroke-miterlimit="10" x1="94.206" y1="82.881" x2="207.134" y2="82.881"/>
</g>
<g id="Слой_1">
	<polyline fill="none" stroke="#16A81A" stroke-width="5" stroke-miterlimit="10" points="123.097,133.149 110.542,157 83,137.5 
		84.14,175.745 70.55,173.171 58.075,186.386 	"/>
	<polyline fill="none" stroke="#EAF70A" stroke-width="5" stroke-miterlimit="10" points="118.428,124.563 106.576,144.201 
		96.062,138.5 93.2,167.072 64.007,159.767 56.082,179.417 	"/>
	<polyline fill="none" stroke="#DB0C0D" stroke-width="5" stroke-miterlimit="10" points="158.607,145.18 173.5,156.5 
		200.785,153.039 200.785,175.745 210.993,175.745 210.993,188.071 	"/>
	<polyline fill="none" stroke="#0071BC" stroke-width="5" stroke-miterlimit="10" points="164.848,130.334 175.623,145.434 
		188.5,143.492 195.481,167.508 214.694,159.767 221.97,175.745 	"/>
	<path fill="#838BC5" d="M205.361,112.649c0-8.067-8.291-14.607-18.518-14.607c-0.63,0-1.252,0.026-1.865,0.074
		c0.332-1.003,0.51-2.039,0.51-3.101c0-8.635-11.526-15.634-25.744-15.634c-13.992,0-25.351,6.783-25.71,15.227
		c-2.466-0.356-5.042-0.565-7.712-0.565c-16.712,0-30.261,7.435-30.261,16.606c0,6.713,7.273,12.482,17.719,15.1
		c-2.06,1.547-3.266,3.349-3.266,5.282c0,5.705,10.313,10.33,23.034,10.33c3.084,0,6.022-0.277,8.71-0.77
		c5.429,3.752,13.066,6.101,21.551,6.101c16.463,0,29.809-8.802,29.809-19.661c0-0.264-0.044-0.521-0.06-0.782
		C200.462,124.128,205.361,118.846,205.361,112.649z"/>
	<path fill="#FFFFFF" d="M200.785,112.717c0-6.661-6.845-12.06-15.289-12.06c-0.52,0-1.034,0.021-1.54,0.061
		c0.274-0.828,0.421-1.683,0.421-2.56c0-7.129-9.516-12.908-21.255-12.908c-11.552,0-20.931,5.6-21.227,12.572
		c-2.036-0.294-4.163-0.466-6.367-0.466c-13.798,0-24.984,6.139-24.984,13.711c0,5.543,6.005,10.306,14.629,12.467
		c-1.701,1.277-2.696,2.765-2.696,4.361c0,4.71,8.515,8.529,19.018,8.529c2.546,0,4.972-0.228,7.191-0.636
		c4.482,3.098,10.788,5.038,17.793,5.038c13.593,0,24.611-7.268,24.611-16.233c0-0.218-0.037-0.43-0.049-0.646
		C196.739,122.194,200.785,117.833,200.785,112.717z"/>
</g>
<g id="Слой_7">
	<path fill="none" stroke="#838BC5" stroke-width="7" stroke-miterlimit="10" d="M252.082,128.718
		c0-17.772-18.264-32.18-40.795-32.18c-1.387,0-2.758,0.057-4.11,0.164c0.732-2.209,1.125-4.492,1.125-6.831
		c0-19.022-25.392-34.442-56.715-34.442c-30.824,0-55.849,14.942-56.64,33.546c-5.433-0.785-11.107-1.245-16.99-1.245
		c-36.818,0-66.664,16.379-66.664,36.584c0,14.789,16.023,27.498,39.034,33.265c-4.539,3.408-7.194,7.379-7.194,11.637
		c0,12.569,22.719,22.758,50.744,22.758c6.795,0,13.266-0.609,19.188-1.696c11.959,8.266,28.786,13.442,47.476,13.442
		c36.268,0,65.669-19.392,65.669-43.312c0-0.582-0.097-1.147-0.132-1.724C241.289,154.006,252.082,142.369,252.082,128.718z"/>
</g>
</svg>
